<svg width="110" height="114" viewBox="0 0 110 114" fill="none" xmlns="http://www.w3.org/2000/svg">
<rect y="0.5" width="110" height="113" rx="20" fill="#F6F6F6"/>
<path d="M53.9029 39.443C54.4651 37.9801 56.5349 37.9801 57.0971 39.443C58.0011 41.7951 60.9364 42.5816 62.8954 40.9966C64.1137 40.0108 65.9062 41.0457 65.6617 42.5937C65.2685 45.0827 67.4173 47.2315 69.9063 46.8383C71.4543 46.5938 72.4892 48.3863 71.5034 49.6046C69.9184 51.5636 70.7049 54.4989 73.057 55.4029C74.5199 55.9651 74.5199 58.0349 73.057 58.5971C70.7049 59.5011 69.9184 62.4364 71.5034 64.3954C72.4892 65.6137 71.4543 67.4062 69.9063 67.1617C67.4173 66.7685 65.2685 68.9173 65.6617 71.4063C65.9062 72.9543 64.1137 73.9892 62.8954 73.0034C60.9364 71.4184 58.0011 72.2049 57.0971 74.557C56.5349 76.0199 54.4651 76.0199 53.9029 74.557C52.9989 72.2049 50.0636 71.4184 48.1046 73.0034C46.8863 73.9892 45.0938 72.9543 45.3383 71.4063C45.7315 68.9173 43.5827 66.7685 41.0937 67.1617C39.5457 67.4062 38.5108 65.6137 39.4966 64.3954C41.0816 62.4364 40.2951 59.5011 37.943 58.5971C36.4801 58.0349 36.4801 55.9651 37.943 55.4029C40.2951 54.4989 41.0816 51.5636 39.4966 49.6046C38.5108 48.3863 39.5457 46.5938 41.0937 46.8383C43.5827 47.2315 45.7315 45.0827 45.3383 42.5937C45.0938 41.0457 46.8863 40.0108 48.1046 40.9966C50.0636 42.5816 52.9989 41.7951 53.9029 39.443Z" stroke="#5956E9" stroke-width="2"/>
<circle cx="55.5" cy="57" r="11.5" stroke="#5956E9" stroke-width="2"/>
</svg>
