<svg width="110" height="114" viewBox="0 0 110 114" fill="none" xmlns="http://www.w3.org/2000/svg">
<rect y="0.5" width="110" height="113" rx="20" fill="#F6F6F6"/>
<path d="M62.7345 67.829L67.6927 39.2699C67.8268 38.4977 67.0607 37.8784 66.3337 38.1713L34.9811 50.8035C34.1945 51.1204 34.1346 52.2109 34.8817 52.6121L43.7101 57.3525C43.9649 57.4893 44.148 57.7296 44.2121 58.0116L45.976 65.7607C46.1406 66.4837 47.007 66.7824 47.5822 66.3145L52.3726 62.4172C52.7385 62.1195 53.2627 62.118 53.6303 62.4135L61.1227 68.4373C61.7163 68.9146 62.6043 68.5795 62.7345 67.829Z" stroke="#5956E9" stroke-width="2"/>
<path d="M59.3208 44.5254L42.3178 55.5187C42.1298 55.6402 42.0455 55.8719 42.1115 56.0858L45.212 66.1472C45.2767 66.3569 45.4705 66.5 45.6899 66.5H46.0884C46.3557 66.5 46.5757 66.2899 46.5879 66.0229L46.9718 57.6513C46.9778 57.5211 47.0343 57.3984 47.1294 57.3093L59.9342 45.3101C60.3789 44.8933 59.8326 44.1944 59.3208 44.5254Z" fill="#5956E9"/>
</svg>
