<svg width="51" height="50" viewBox="0 0 51 50" fill="none" xmlns="http://www.w3.org/2000/svg">
<rect x="42.125" y="43.2811" width="7.82924" height="3.50271" fill="#38D4FF"/>
<path d="M45.5842 5.31845L42.3924 12.3625C42.2162 12.7514 42.125 13.1736 42.125 13.6006V45.6594C42.125 46.764 43.0204 47.6594 44.125 47.6594H47.9542C49.0588 47.6594 49.9542 46.764 49.9542 45.6594V13.6006C49.9542 13.1736 49.8631 12.7514 49.6868 12.3625L46.495 5.31845C46.3176 4.92694 45.7616 4.92694 45.5842 5.31845Z" stroke="#5956E9" stroke-width="2"/>
<path d="M42.125 13.5077H46.5289H49.9542" stroke="#5956E9" stroke-width="2"/>
<path d="M42.125 43.2811H49.9542" stroke="#5956E9" stroke-width="2"/>
<path d="M23.9751 10.3954L23.5965 4.1017C23.561 3.51157 24.0425 3.01963 24.6333 3.0424L25.8052 3.08758C26.0531 3.09714 26.2887 3.19854 26.466 3.37207L35.1432 11.8623C35.663 12.3708 35.4834 13.2463 34.8056 13.5093L32.7587 14.3034C32.6223 14.3563 32.4761 14.3786 32.3302 14.3689L26.8835 14.0044C26.5906 13.9848 26.3211 13.8374 26.1465 13.6015L24.1695 10.9302C24.0543 10.7745 23.9867 10.5887 23.9751 10.3954Z" fill="#38D4FF"/>
<path d="M2 9.1239V40.8761C2 44.7421 5.13401 47.8761 9 47.8761H29.5041C33.3701 47.8761 36.5041 44.7421 36.5041 40.8761V15.1929C36.5041 13.2054 35.6592 11.3116 34.1803 9.9839L27.4199 3.91495C26.1353 2.76176 24.47 2.1239 22.7437 2.1239H9C5.13401 2.1239 2 5.25791 2 9.1239Z" stroke="#5956E9" stroke-width="2.5"/>
<path d="M6.89355 27.081C6.89355 26.3555 7.68224 25.7675 8.65513 25.7675H28.6197C29.5926 25.7675 30.3813 26.3555 30.3813 27.081C30.3813 27.8064 29.5926 28.3945 28.6197 28.3945H8.65513C7.68224 28.3945 6.89355 27.8064 6.89355 27.081Z" fill="#E541ED"/>
<path d="M6.89355 20.951C6.89355 20.2255 7.68224 19.6375 8.65513 19.6375H28.6197C29.5926 19.6375 30.3813 20.2255 30.3813 20.951C30.3813 21.6764 29.5926 22.2645 28.6197 22.2645H8.65513C7.68224 22.2645 6.89355 21.6764 6.89355 20.951Z" fill="#E541ED"/>
<path d="M6.89355 33.2109C6.89355 32.4854 7.68224 31.8973 8.65513 31.8973H28.6197C29.5926 31.8973 30.3813 32.4854 30.3813 33.2109C30.3813 33.9363 29.5926 34.5244 28.6197 34.5244H8.65513C7.68224 34.5244 6.89355 33.9363 6.89355 33.2109Z" fill="#E541ED"/>
<path d="M6.89355 39.3398C6.89355 38.6143 7.69163 38.0262 8.67611 38.0262H21.7481C22.7326 38.0262 23.5307 38.6143 23.5307 39.3398C23.5307 40.0652 22.7326 40.6533 21.7481 40.6533H8.67611C7.69163 40.6533 6.89355 40.0652 6.89355 39.3398Z" fill="#E541ED"/>
<path d="M23.4092 2.30945V10.0265C23.4092 12.2356 25.2 14.0265 27.4092 14.0265H35.6727" stroke="#5956E9" stroke-width="2.5" stroke-linecap="round"/>
</svg>
