<svg width="111" height="114" viewBox="0 0 111 114" fill="none" xmlns="http://www.w3.org/2000/svg">
<rect x="0.574219" y="0.447754" width="110" height="113" rx="20" fill="#F6F6F6"/>
<path d="M62.796 78.4478H42.7309C40.1176 78.4478 38.0059 76.317 38.0059 73.6882V45.9549C38.0059 43.3261 40.1176 41.1871 42.7309 41.1871H62.8041C65.4094 41.1871 67.5291 43.3179 67.5291 45.9549V73.6882C67.5211 76.317 65.4094 78.4478 62.796 78.4478Z" stroke="#5956E9" stroke-width="2" stroke-miterlimit="10"/>
<path d="M66.8331 48.2082H63.9609C61.8573 48.2082 60.1582 46.4937 60.1582 44.3711V41.3831" stroke="#5956E9" stroke-width="2" stroke-miterlimit="10"/>
<path d="M47.6738 35.4478H66.0723C69.9801 35.4478 73.1517 38.6481 73.1517 42.5913V72.4717" stroke="#5956E9" stroke-width="2" stroke-miterlimit="10" stroke-linecap="round"/>
<path d="M44.7051 58.5112H60.2637" stroke="#5956E9" stroke-width="2" stroke-miterlimit="10" stroke-linecap="round"/>
<path d="M44.7051 63.8668H60.2637" stroke="#5956E9" stroke-width="2" stroke-miterlimit="10" stroke-linecap="round"/>
<path d="M44.7051 69.2551H60.2637" stroke="#5956E9" stroke-width="2" stroke-miterlimit="10" stroke-linecap="round"/>
</svg>
