<svg width="75" height="74" viewBox="0 0 75 74" fill="none" xmlns="http://www.w3.org/2000/svg">
<rect width="64" height="64" rx="15" transform="matrix(1 0 0 -1 0.5 64)" fill="url(#paint0_linear_1_3761)"/>
<g filter="url(#filter0_b_1_3761)">
<rect width="64" height="64" rx="15" transform="matrix(1 0 0 -1 10.5 74)" fill="#EEEEEE" fill-opacity="0.61"/>
<rect x="0.5" y="-0.5" width="63" height="63" rx="14.5" transform="matrix(1 0 0 -1 10.5 73)" stroke="white"/>
</g>
<path d="M54.0948 44.0827L54.0946 44.0832C53.8953 44.698 53.9624 45.3469 54.0655 45.8732C54.1542 46.3259 54.2962 46.8056 54.4215 47.2289C54.4444 47.306 54.4666 47.3812 54.4879 47.454C54.6368 47.9633 54.7437 48.3737 54.7754 48.7127C54.8074 49.0549 54.7457 49.1611 54.7304 49.1822L54.7302 49.1825C54.7116 49.208 54.6257 49.3007 54.2902 49.3766C53.9572 49.4519 53.5329 49.4773 53.0031 49.4927C52.9233 49.495 52.8407 49.497 52.7559 49.4992C52.3183 49.5101 51.8237 49.5225 51.3722 49.576C50.8429 49.6387 50.2046 49.7724 49.6829 50.1517L49.6826 50.1519C49.1621 50.5307 48.8406 51.098 48.6205 51.5801C48.4345 51.9874 48.2728 52.4485 48.1293 52.8575C48.0996 52.9421 48.0707 53.0245 48.0425 53.1038C47.8652 53.6025 47.7097 53.9983 47.5345 54.2919C47.3585 54.5867 47.2412 54.6436 47.2048 54.6554L47.2043 54.6556C47.1891 54.6605 47.0762 54.6889 46.7613 54.5512C46.4504 54.4152 46.0945 54.1858 45.6552 53.8854C45.5983 53.8464 45.5397 53.8061 45.4798 53.7649C45.1104 53.5107 44.6896 53.2212 44.2755 52.9924C43.8013 52.7304 43.2019 52.4687 42.5516 52.4687C41.9013 52.4687 41.3019 52.7304 40.8277 52.9924C40.4135 53.2212 39.9928 53.5107 39.6234 53.7649C39.5635 53.8061 39.5049 53.8464 39.4479 53.8854C39.0087 54.1858 38.6528 54.4152 38.3419 54.5512C38.027 54.6889 37.914 54.6605 37.8989 54.6556L37.8983 54.6554C37.8619 54.6436 37.7447 54.5867 37.5687 54.2919C37.3935 53.9983 37.238 53.6025 37.0606 53.1038C37.0324 53.0245 37.0035 52.9421 36.9738 52.8574C36.8304 52.4484 36.6686 51.9874 36.4827 51.5801C36.2625 51.098 35.9411 50.5307 35.4206 50.1519L35.4202 50.1517C34.8986 49.7724 34.2602 49.6387 33.731 49.576C33.2795 49.5225 32.7848 49.5101 32.3473 49.4992C32.2625 49.497 32.1799 49.495 32.1001 49.4927C31.5702 49.4773 31.146 49.4519 30.8129 49.3766C30.4774 49.3007 30.3915 49.208 30.373 49.1825L30.3728 49.1822C30.3575 49.1611 30.2958 49.0549 30.3278 48.7127C30.3595 48.3737 30.4664 47.9633 30.6152 47.454C30.6365 47.3812 30.6588 47.306 30.6816 47.2289C30.8069 46.8056 30.949 46.3259 31.0377 45.8732C31.1407 45.3469 31.2079 44.698 31.0086 44.0832L31.0084 44.0827C30.8103 43.4727 30.369 42.9946 29.9813 42.6404C29.6583 42.3453 29.2771 42.0545 28.9378 41.7956C28.8614 41.7373 28.7871 41.6806 28.716 41.6259C28.2984 41.304 27.971 41.033 27.7468 40.7741C27.5226 40.5153 27.5 40.3802 27.5 40.3308C27.5 40.2814 27.5226 40.1462 27.7468 39.8874C27.971 39.6286 28.2984 39.3575 28.716 39.0357C28.7871 38.9809 28.8614 38.9242 28.9378 38.8659C29.2771 38.6071 29.6583 38.3162 29.9813 38.0212C30.369 37.6669 30.8103 37.1888 31.0084 36.5788L31.0086 36.5783C31.2079 35.9635 31.1407 35.3147 31.0377 34.7884C30.949 34.3356 30.8069 33.8559 30.6816 33.4327C30.6588 33.3556 30.6365 33.2804 30.6152 33.2075C30.4664 32.6983 30.3595 32.2878 30.3278 31.9488C30.2958 31.6067 30.3575 31.5004 30.3728 31.4794L30.373 31.479C30.3915 31.4535 30.4774 31.3608 30.8129 31.285C31.146 31.2096 31.5702 31.1842 32.1001 31.1689C32.1799 31.1666 32.2625 31.1645 32.3473 31.1624C32.7848 31.1514 33.2795 31.139 33.731 31.0855C34.2602 31.0229 34.8986 30.8891 35.4202 30.5098L35.4206 30.5096C35.9411 30.1308 36.2625 29.5635 36.4827 29.0814C36.6686 28.6742 36.8304 28.2131 36.9738 27.8041C37.0035 27.7195 37.0324 27.637 37.0606 27.5578C37.238 27.059 37.3935 26.6632 37.5687 26.3696C37.7447 26.0748 37.8619 26.018 37.8983 26.0061L37.8989 26.006C37.914 26.001 38.027 25.9726 38.3419 26.1104C38.6528 26.2464 39.0087 26.4758 39.4479 26.7762C39.5049 26.8151 39.5635 26.8554 39.6234 26.8966C39.9928 27.1508 40.4135 27.4403 40.8277 27.6692C41.3019 27.9312 41.9013 28.1929 42.5516 28.1929C43.2019 28.1929 43.8013 27.9312 44.2755 27.6692C44.6896 27.4403 45.1104 27.1508 45.4798 26.8966C45.5397 26.8554 45.5983 26.8151 45.6552 26.7762C46.0945 26.4758 46.4504 26.2464 46.7613 26.1104C47.0762 25.9726 47.1891 26.001 47.2043 26.006L47.2048 26.0061C47.2412 26.018 47.3585 26.0748 47.5345 26.3696C47.7097 26.6632 47.8652 27.059 48.0425 27.5578C48.0707 27.637 48.0996 27.7194 48.1293 27.8041C48.2728 28.2131 48.4345 28.6742 48.6205 29.0814C48.8406 29.5635 49.1621 30.1308 49.6826 30.5096L49.6829 30.5098C50.2046 30.8891 50.8429 31.0229 51.3722 31.0855C51.8237 31.139 52.3183 31.1514 52.7559 31.1624C52.8407 31.1645 52.9233 31.1666 53.0031 31.1689C53.5329 31.1842 53.9572 31.2096 54.2902 31.285C54.6257 31.3608 54.7116 31.4535 54.7302 31.479L54.7304 31.4794C54.7457 31.5004 54.8074 31.6067 54.7754 31.9488C54.7437 32.2878 54.6368 32.6983 54.4879 33.2075C54.4666 33.2804 54.4444 33.3556 54.4215 33.4327C54.2962 33.8559 54.1542 34.3356 54.0655 34.7884C53.9624 35.3147 53.8953 35.9635 54.0946 36.5783C54.2919 37.1883 54.7336 37.666 55.1206 38.0193C55.4428 38.3134 55.8235 38.6035 56.1624 38.8619C56.2394 38.9207 56.3143 38.9777 56.3859 39.0329C56.8036 39.3546 57.1312 39.6258 57.3557 39.8851C57.58 40.1441 57.6032 40.28 57.6032 40.3308C57.6032 40.3818 57.58 40.5175 57.3562 40.776C57.1321 41.0348 56.805 41.3056 56.3874 41.6271C56.3161 41.6821 56.2414 41.739 56.1645 41.7976C55.8256 42.0559 55.4448 42.3462 55.1223 42.6406C54.7345 42.9946 54.2929 43.4725 54.0948 44.0827ZM42.5 47C46.366 47 49.5 43.866 49.5 40C49.5 36.134 46.366 33 42.5 33C38.634 33 35.5 36.134 35.5 40C35.5 43.866 38.634 47 42.5 47ZM47.5 40C47.5 42.7614 45.2614 45 42.5 45C39.7386 45 37.5 42.7614 37.5 40C37.5 37.2386 39.7386 35 42.5 35C45.2614 35 47.5 37.2386 47.5 40Z" stroke="#E749EE" stroke-width="2"/>
<defs>
<filter id="filter0_b_1_3761" x="2.5" y="2" width="80" height="80" filterUnits="userSpaceOnUse" color-interpolation-filters="sRGB">
<feFlood flood-opacity="0" result="BackgroundImageFix"/>
<feGaussianBlur in="BackgroundImageFix" stdDeviation="4"/>
<feComposite in2="SourceAlpha" operator="in" result="effect1_backgroundBlur_1_3761"/>
<feBlend mode="normal" in="SourceGraphic" in2="effect1_backgroundBlur_1_3761" result="shape"/>
</filter>
<linearGradient id="paint0_linear_1_3761" x1="32" y1="0" x2="32" y2="64" gradientUnits="userSpaceOnUse">
<stop stop-color="#E541ED"/>
<stop offset="1" stop-color="#FEEBFF"/>
</linearGradient>
</defs>
</svg>
